<mxfile host="app.diagrams.net" modified="2023-04-20T12:18:01.499Z" agent="Mozilla/5.0 (Macintosh; Intel Mac OS X 10_15_7) AppleWebKit/605.1.15 (KHTML, like Gecko) Version/16.2 Safari/605.1.15" etag="V5wMp-s3hD-Uw2qq8AGD" version="21.1.9" type="github">
  <diagram id="1c3a3Ne5sWxcKdT_-n9J" name="Page-1">
    <mxGraphModel dx="1781" dy="1816" grid="1" gridSize="10" guides="1" tooltips="1" connect="1" arrows="1" fold="1" page="1" pageScale="1" pageWidth="827" pageHeight="1169" math="0" shadow="0">
      <root>
        <mxCell id="0" />
        <mxCell id="1" parent="0" />
        <mxCell id="gdSRfwR2-Zda05xjYu1--1" value="Camera" style="rounded=0;whiteSpace=wrap;html=1;" parent="1" vertex="1">
          <mxGeometry x="840" y="230" width="120" height="60" as="geometry" />
        </mxCell>
        <mxCell id="gdSRfwR2-Zda05xjYu1--2" value="" style="endArrow=none;dashed=1;html=1;rounded=0;strokeWidth=2;" parent="1" edge="1">
          <mxGeometry width="50" height="50" relative="1" as="geometry">
            <mxPoint x="700" y="455" as="sourcePoint" />
            <mxPoint x="700" y="175" as="targetPoint" />
            <Array as="points">
              <mxPoint x="699.5" y="311.25" />
            </Array>
          </mxGeometry>
        </mxCell>
        <mxCell id="gdSRfwR2-Zda05xjYu1--3" value="Internet" style="text;html=1;strokeColor=none;fillColor=none;align=center;verticalAlign=middle;whiteSpace=wrap;rounded=0;fontSize=14;" parent="1" vertex="1">
          <mxGeometry x="670" y="125" width="60" height="30" as="geometry" />
        </mxCell>
        <mxCell id="gdSRfwR2-Zda05xjYu1--4" value="Socket" style="whiteSpace=wrap;html=1;aspect=fixed;fontSize=14;fillColor=#fff2cc;rotation=-90;strokeColor=#d6b656;" parent="1" vertex="1">
          <mxGeometry x="560" y="292.5" width="55" height="55" as="geometry" />
        </mxCell>
        <mxCell id="gdSRfwR2-Zda05xjYu1--6" value="Server" style="text;html=1;strokeColor=none;fillColor=none;align=center;verticalAlign=middle;whiteSpace=wrap;rounded=0;fontSize=14;" parent="1" vertex="1">
          <mxGeometry x="-198.75" y="150" width="60" height="30" as="geometry" />
        </mxCell>
        <mxCell id="gdSRfwR2-Zda05xjYu1--7" value="" style="endArrow=classic;html=1;strokeWidth=2;fontSize=14;rounded=0;dashed=1;" parent="1" edge="1">
          <mxGeometry width="50" height="50" relative="1" as="geometry">
            <mxPoint x="840" y="320.75" as="sourcePoint" />
            <mxPoint x="730" y="320.75" as="targetPoint" />
            <Array as="points">
              <mxPoint x="780" y="320.75" />
            </Array>
          </mxGeometry>
        </mxCell>
        <mxCell id="gdSRfwR2-Zda05xjYu1--9" value="ByteDecoder" style="rounded=0;whiteSpace=wrap;html=1;fontSize=14;fillColor=#fff2cc;strokeColor=#d6b656;" parent="1" vertex="1">
          <mxGeometry x="320" y="280" width="120" height="80" as="geometry" />
        </mxCell>
        <mxCell id="gdSRfwR2-Zda05xjYu1--10" style="edgeStyle=orthogonalEdgeStyle;rounded=0;orthogonalLoop=1;jettySize=auto;html=1;exitX=0.5;exitY=1;exitDx=0;exitDy=0;dashed=1;strokeWidth=2;fontSize=14;" parent="1" source="gdSRfwR2-Zda05xjYu1--9" target="gdSRfwR2-Zda05xjYu1--9" edge="1">
          <mxGeometry relative="1" as="geometry" />
        </mxCell>
        <mxCell id="gdSRfwR2-Zda05xjYu1--14" value="" style="endArrow=classic;html=1;rounded=0;strokeWidth=2;fontSize=14;exitX=0;exitY=0.5;exitDx=0;exitDy=0;" parent="1" source="gdSRfwR2-Zda05xjYu1--9" edge="1">
          <mxGeometry width="50" height="50" relative="1" as="geometry">
            <mxPoint x="110" y="350" as="sourcePoint" />
            <mxPoint x="260" y="320" as="targetPoint" />
          </mxGeometry>
        </mxCell>
        <mxCell id="gdSRfwR2-Zda05xjYu1--15" value="Robots&amp;nbsp;/ Route&lt;br&gt;Recognizer" style="rounded=0;whiteSpace=wrap;html=1;fontSize=14;fillColor=#d5e8d4;strokeColor=#82b366;" parent="1" vertex="1">
          <mxGeometry x="-98.75" y="290" width="130" height="60" as="geometry" />
        </mxCell>
        <mxCell id="gdSRfwR2-Zda05xjYu1--16" value="image with timestamp and camera id" style="text;html=1;strokeColor=none;fillColor=none;align=center;verticalAlign=middle;whiteSpace=wrap;rounded=0;fontSize=14;rotation=0;" parent="1" vertex="1">
          <mxGeometry x="260" y="370" width="160" height="30" as="geometry" />
        </mxCell>
        <mxCell id="gdSRfwR2-Zda05xjYu1--19" value="" style="endArrow=classic;html=1;rounded=0;strokeWidth=2;fontSize=14;exitX=0;exitY=0.5;exitDx=0;exitDy=0;entryX=1;entryY=0.5;entryDx=0;entryDy=0;" parent="1" source="gdSRfwR2-Zda05xjYu1--15" target="gdSRfwR2-Zda05xjYu1--20" edge="1">
          <mxGeometry width="50" height="50" relative="1" as="geometry">
            <mxPoint x="-218.75" y="360" as="sourcePoint" />
            <mxPoint x="-168.75" y="310" as="targetPoint" />
          </mxGeometry>
        </mxCell>
        <mxCell id="gdSRfwR2-Zda05xjYu1--20" value="" style="rounded=0;whiteSpace=wrap;html=1;fontSize=14;fillColor=none;" parent="1" vertex="1">
          <mxGeometry x="-218.75" y="270" width="40" height="60" as="geometry" />
        </mxCell>
        <mxCell id="gdSRfwR2-Zda05xjYu1--21" value="" style="rounded=0;whiteSpace=wrap;html=1;fontSize=14;fillColor=none;" parent="1" vertex="1">
          <mxGeometry x="-218.75" y="330" width="40" height="60" as="geometry" />
        </mxCell>
        <mxCell id="gdSRfwR2-Zda05xjYu1--22" value="" style="endArrow=classic;html=1;rounded=0;strokeWidth=2;fontSize=14;exitX=0;exitY=0.5;exitDx=0;exitDy=0;entryX=1;entryY=0.5;entryDx=0;entryDy=0;" parent="1" source="gdSRfwR2-Zda05xjYu1--15" target="gdSRfwR2-Zda05xjYu1--21" edge="1">
          <mxGeometry width="50" height="50" relative="1" as="geometry">
            <mxPoint x="-218.75" y="360" as="sourcePoint" />
            <mxPoint x="-168.75" y="310" as="targetPoint" />
          </mxGeometry>
        </mxCell>
        <mxCell id="gdSRfwR2-Zda05xjYu1--23" value="[robot]" style="text;html=1;strokeColor=none;fillColor=none;align=center;verticalAlign=middle;whiteSpace=wrap;rounded=0;fontSize=14;" parent="1" vertex="1">
          <mxGeometry x="-158.75" y="357.5" width="60" height="30" as="geometry" />
        </mxCell>
        <mxCell id="gdSRfwR2-Zda05xjYu1--24" value="route" style="text;html=1;strokeColor=none;fillColor=none;align=center;verticalAlign=middle;whiteSpace=wrap;rounded=0;fontSize=14;" parent="1" vertex="1">
          <mxGeometry x="-158.75" y="265" width="60" height="30" as="geometry" />
        </mxCell>
        <mxCell id="gdSRfwR2-Zda05xjYu1--25" value="Interpretator" style="rounded=0;whiteSpace=wrap;html=1;fontSize=14;fillColor=#dae8fc;strokeColor=#6c8ebf;" parent="1" vertex="1">
          <mxGeometry x="-348.75" y="270" width="130" height="120" as="geometry" />
        </mxCell>
        <mxCell id="gdSRfwR2-Zda05xjYu1--26" value="Converts model objects to mathematical objects (matrixes, coordinates)" style="text;html=1;strokeColor=none;fillColor=none;align=center;verticalAlign=middle;whiteSpace=wrap;rounded=0;fontSize=14;" parent="1" vertex="1">
          <mxGeometry x="-348.75" y="380" width="130" height="110" as="geometry" />
        </mxCell>
        <mxCell id="gdSRfwR2-Zda05xjYu1--27" value="" style="rounded=0;whiteSpace=wrap;html=1;fontSize=14;fillColor=#dae8fc;strokeColor=#6c8ebf;" parent="1" vertex="1">
          <mxGeometry x="-448.75" y="270" width="100" height="120" as="geometry" />
        </mxCell>
        <mxCell id="gdSRfwR2-Zda05xjYu1--28" value="Estimator" style="text;html=1;strokeColor=none;fillColor=none;align=center;verticalAlign=middle;whiteSpace=wrap;rounded=0;fontSize=14;" parent="1" vertex="1">
          <mxGeometry x="-428.75" y="315" width="60" height="30" as="geometry" />
        </mxCell>
        <mxCell id="gdSRfwR2-Zda05xjYu1--29" value="Estimates diff between ideal trajectory and real once" style="text;html=1;strokeColor=none;fillColor=none;align=center;verticalAlign=middle;whiteSpace=wrap;rounded=0;fontSize=14;" parent="1" vertex="1">
          <mxGeometry x="-448.75" y="400" width="100" height="80" as="geometry" />
        </mxCell>
        <mxCell id="gdSRfwR2-Zda05xjYu1--30" value="User&lt;br&gt;Presenter" style="rounded=0;whiteSpace=wrap;html=1;fontSize=14;fillColor=#fff2cc;strokeColor=#d6b656;" parent="1" vertex="1">
          <mxGeometry x="-538.75" y="270" width="90" height="120" as="geometry" />
        </mxCell>
        <mxCell id="gdSRfwR2-Zda05xjYu1--32" value="" style="rounded=0;whiteSpace=wrap;html=1;fontSize=14;fillColor=#fff2cc;strokeColor=#d6b656;" parent="1" vertex="1">
          <mxGeometry x="-580" y="243.75" width="40" height="180" as="geometry" />
        </mxCell>
        <mxCell id="gdSRfwR2-Zda05xjYu1--35" value="Display" style="text;html=1;strokeColor=none;fillColor=none;align=center;verticalAlign=middle;whiteSpace=wrap;rounded=0;fontSize=14;rotation=90;" parent="1" vertex="1">
          <mxGeometry x="-650" y="316.25" width="182.5" height="30" as="geometry" />
        </mxCell>
        <mxCell id="gdSRfwR2-Zda05xjYu1--36" value="Converts in-module data to user-presentable&amp;nbsp;" style="text;html=1;strokeColor=none;fillColor=none;align=center;verticalAlign=middle;whiteSpace=wrap;rounded=0;fontSize=14;" parent="1" vertex="1">
          <mxGeometry x="-528.12" y="400" width="68.75" height="80" as="geometry" />
        </mxCell>
        <mxCell id="fbBy95R8mquqIEM03Fjc-1" value="Client" style="rounded=0;whiteSpace=wrap;html=1;fillColor=#fff2cc;strokeColor=#d6b656;" parent="1" vertex="1">
          <mxGeometry x="840" y="290" width="120" height="60" as="geometry" />
        </mxCell>
        <mxCell id="fbBy95R8mquqIEM03Fjc-2" value="Camera&#39;s registrator&amp;nbsp;" style="rounded=0;whiteSpace=wrap;html=1;rotation=-90;fillColor=#fff2cc;strokeColor=#d6b656;" parent="1" vertex="1">
          <mxGeometry x="465" y="295" width="140" height="50" as="geometry" />
        </mxCell>
        <mxCell id="fbBy95R8mquqIEM03Fjc-3" value="Images buffer" style="rounded=0;whiteSpace=wrap;html=1;rotation=-90;fillColor=#fff2cc;strokeColor=#d6b656;" parent="1" vertex="1">
          <mxGeometry x="108.75" y="288.75" width="242.5" height="60" as="geometry" />
        </mxCell>
        <mxCell id="fbBy95R8mquqIEM03Fjc-4" value="Sync manager" style="rounded=0;whiteSpace=wrap;html=1;rotation=0;fillColor=#fff2cc;strokeColor=#d6b656;" parent="1" vertex="1">
          <mxGeometry x="50" y="290" width="120" height="60" as="geometry" />
        </mxCell>
        <mxCell id="_ftnjJTq1J7DcT885IHt-4" value="frame" style="rounded=0;whiteSpace=wrap;html=1;" parent="1" vertex="1">
          <mxGeometry x="750" y="255" width="60" height="40" as="geometry" />
        </mxCell>
        <mxCell id="_ftnjJTq1J7DcT885IHt-5" value="frame:&lt;br&gt;- image&lt;br&gt;- timestamp" style="text;html=1;strokeColor=none;fillColor=none;align=center;verticalAlign=middle;whiteSpace=wrap;rounded=0;" parent="1" vertex="1">
          <mxGeometry x="730" y="330" width="100" height="103.75" as="geometry" />
        </mxCell>
        <mxCell id="_ftnjJTq1J7DcT885IHt-8" value="" style="endArrow=classic;html=1;rounded=0;" parent="1" edge="1">
          <mxGeometry width="50" height="50" relative="1" as="geometry">
            <mxPoint x="510" y="293" as="sourcePoint" />
            <mxPoint x="440" y="293" as="targetPoint" />
          </mxGeometry>
        </mxCell>
        <mxCell id="_ftnjJTq1J7DcT885IHt-13" value="" style="endArrow=classic;html=1;rounded=0;exitX=0.75;exitY=0;exitDx=0;exitDy=0;" parent="1" edge="1">
          <mxGeometry width="50" height="50" relative="1" as="geometry">
            <mxPoint x="510" y="310" as="sourcePoint" />
            <mxPoint x="440" y="310.5" as="targetPoint" />
          </mxGeometry>
        </mxCell>
        <mxCell id="_ftnjJTq1J7DcT885IHt-14" value="" style="endArrow=classic;html=1;rounded=0;exitX=0.75;exitY=0;exitDx=0;exitDy=0;" parent="1" edge="1">
          <mxGeometry width="50" height="50" relative="1" as="geometry">
            <mxPoint x="510" y="324.41" as="sourcePoint" />
            <mxPoint x="440" y="324.91" as="targetPoint" />
          </mxGeometry>
        </mxCell>
        <mxCell id="_ftnjJTq1J7DcT885IHt-15" value="" style="endArrow=classic;html=1;rounded=0;exitX=0.75;exitY=0;exitDx=0;exitDy=0;" parent="1" edge="1">
          <mxGeometry width="50" height="50" relative="1" as="geometry">
            <mxPoint x="510" y="336.25000000000006" as="sourcePoint" />
            <mxPoint x="440" y="336.75000000000006" as="targetPoint" />
          </mxGeometry>
        </mxCell>
        <mxCell id="_ftnjJTq1J7DcT885IHt-16" value="" style="endArrow=classic;html=1;rounded=0;exitX=0.75;exitY=0;exitDx=0;exitDy=0;" parent="1" edge="1">
          <mxGeometry width="50" height="50" relative="1" as="geometry">
            <mxPoint x="510" y="355.0000000000001" as="sourcePoint" />
            <mxPoint x="440" y="355.5000000000001" as="targetPoint" />
          </mxGeometry>
        </mxCell>
        <mxCell id="_ftnjJTq1J7DcT885IHt-22" value="" style="endArrow=classic;html=1;rounded=0;exitX=0.5;exitY=0;exitDx=0;exitDy=0;entryX=1;entryY=0.5;entryDx=0;entryDy=0;" parent="1" source="fbBy95R8mquqIEM03Fjc-3" target="fbBy95R8mquqIEM03Fjc-4" edge="1">
          <mxGeometry width="50" height="50" relative="1" as="geometry">
            <mxPoint x="210" y="460" as="sourcePoint" />
            <mxPoint x="260" y="410" as="targetPoint" />
          </mxGeometry>
        </mxCell>
        <mxCell id="_ftnjJTq1J7DcT885IHt-23" value="" style="endArrow=classic;html=1;rounded=0;exitX=0;exitY=0.5;exitDx=0;exitDy=0;entryX=1;entryY=0.5;entryDx=0;entryDy=0;" parent="1" source="fbBy95R8mquqIEM03Fjc-4" target="gdSRfwR2-Zda05xjYu1--15" edge="1">
          <mxGeometry width="50" height="50" relative="1" as="geometry">
            <mxPoint x="210" y="460" as="sourcePoint" />
            <mxPoint x="260" y="410" as="targetPoint" />
          </mxGeometry>
        </mxCell>
        <mxCell id="wx99u-is4_1wThuH9Zfa-21" value="&lt;b&gt;SocketReader&lt;/b&gt;" style="swimlane;fontStyle=0;childLayout=stackLayout;horizontal=1;startSize=30;horizontalStack=0;resizeParent=1;resizeParentMax=0;resizeLast=0;collapsible=1;marginBottom=0;whiteSpace=wrap;html=1;" parent="1" vertex="1" collapsed="1">
          <mxGeometry x="730" y="780" width="120" height="30" as="geometry">
            <mxRectangle x="730" y="780" width="165" height="90" as="alternateBounds" />
          </mxGeometry>
        </mxCell>
        <mxCell id="wx99u-is4_1wThuH9Zfa-23" value="Item 2" style="text;strokeColor=none;fillColor=none;align=left;verticalAlign=middle;spacingLeft=4;spacingRight=4;overflow=hidden;points=[[0,0.5],[1,0.5]];portConstraint=eastwest;rotatable=0;whiteSpace=wrap;html=1;" parent="wx99u-is4_1wThuH9Zfa-21" vertex="1">
          <mxGeometry y="30" width="165" height="30" as="geometry" />
        </mxCell>
        <mxCell id="wx99u-is4_1wThuH9Zfa-24" value="Item 3" style="text;strokeColor=none;fillColor=none;align=left;verticalAlign=middle;spacingLeft=4;spacingRight=4;overflow=hidden;points=[[0,0.5],[1,0.5]];portConstraint=eastwest;rotatable=0;whiteSpace=wrap;html=1;" parent="wx99u-is4_1wThuH9Zfa-21" vertex="1">
          <mxGeometry y="60" width="165" height="30" as="geometry" />
        </mxCell>
        <mxCell id="wx99u-is4_1wThuH9Zfa-33" value="&lt;b&gt;CameraImageProvider&lt;/b&gt;" style="swimlane;fontStyle=0;childLayout=stackLayout;horizontal=1;startSize=30;horizontalStack=0;resizeParent=1;resizeParentMax=0;resizeLast=0;collapsible=1;marginBottom=0;whiteSpace=wrap;html=1;" parent="1" vertex="1">
          <mxGeometry x="120" y="780" width="250" height="150" as="geometry" />
        </mxCell>
        <mxCell id="wx99u-is4_1wThuH9Zfa-22" value="camera_service: CameraService" style="text;strokeColor=none;fillColor=none;align=left;verticalAlign=middle;spacingLeft=4;spacingRight=4;overflow=hidden;points=[[0,0.5],[1,0.5]];portConstraint=eastwest;rotatable=0;whiteSpace=wrap;html=1;" parent="wx99u-is4_1wThuH9Zfa-33" vertex="1">
          <mxGeometry y="30" width="250" height="30" as="geometry" />
        </mxCell>
        <mxCell id="wx99u-is4_1wThuH9Zfa-34" value="image_decoder: ImageDecoder" style="text;strokeColor=none;fillColor=none;align=left;verticalAlign=middle;spacingLeft=4;spacingRight=4;overflow=hidden;points=[[0,0.5],[1,0.5]];portConstraint=eastwest;rotatable=0;whiteSpace=wrap;html=1;" parent="wx99u-is4_1wThuH9Zfa-33" vertex="1">
          <mxGeometry y="60" width="250" height="30" as="geometry" />
        </mxCell>
        <mxCell id="wx99u-is4_1wThuH9Zfa-35" value="socket_reader: SocketReader&amp;nbsp;" style="text;strokeColor=none;fillColor=none;align=left;verticalAlign=middle;spacingLeft=4;spacingRight=4;overflow=hidden;points=[[0,0.5],[1,0.5]];portConstraint=eastwest;rotatable=0;whiteSpace=wrap;html=1;" parent="wx99u-is4_1wThuH9Zfa-33" vertex="1">
          <mxGeometry y="90" width="250" height="30" as="geometry" />
        </mxCell>
        <mxCell id="wx99u-is4_1wThuH9Zfa-36" value="Item 3" style="text;strokeColor=none;fillColor=none;align=left;verticalAlign=middle;spacingLeft=4;spacingRight=4;overflow=hidden;points=[[0,0.5],[1,0.5]];portConstraint=eastwest;rotatable=0;whiteSpace=wrap;html=1;" parent="wx99u-is4_1wThuH9Zfa-33" vertex="1">
          <mxGeometry y="120" width="250" height="30" as="geometry" />
        </mxCell>
        <mxCell id="wx99u-is4_1wThuH9Zfa-37" value="&amp;lt;&amp;lt;Interface&amp;gt;&amp;gt;&lt;br&gt;&lt;b&gt;ImageProvider&lt;/b&gt;" style="swimlane;fontStyle=0;childLayout=stackLayout;horizontal=1;startSize=30;horizontalStack=0;resizeParent=1;resizeParentMax=0;resizeLast=0;collapsible=1;marginBottom=0;whiteSpace=wrap;html=1;" parent="1" vertex="1">
          <mxGeometry x="170" y="550" width="140" height="120" as="geometry" />
        </mxCell>
        <mxCell id="wx99u-is4_1wThuH9Zfa-38" value="Item 1" style="text;strokeColor=none;fillColor=none;align=left;verticalAlign=middle;spacingLeft=4;spacingRight=4;overflow=hidden;points=[[0,0.5],[1,0.5]];portConstraint=eastwest;rotatable=0;whiteSpace=wrap;html=1;" parent="wx99u-is4_1wThuH9Zfa-37" vertex="1">
          <mxGeometry y="30" width="140" height="30" as="geometry" />
        </mxCell>
        <mxCell id="wx99u-is4_1wThuH9Zfa-39" value="Item 2" style="text;strokeColor=none;fillColor=none;align=left;verticalAlign=middle;spacingLeft=4;spacingRight=4;overflow=hidden;points=[[0,0.5],[1,0.5]];portConstraint=eastwest;rotatable=0;whiteSpace=wrap;html=1;" parent="wx99u-is4_1wThuH9Zfa-37" vertex="1">
          <mxGeometry y="60" width="140" height="30" as="geometry" />
        </mxCell>
        <mxCell id="wx99u-is4_1wThuH9Zfa-40" value="Item 3" style="text;strokeColor=none;fillColor=none;align=left;verticalAlign=middle;spacingLeft=4;spacingRight=4;overflow=hidden;points=[[0,0.5],[1,0.5]];portConstraint=eastwest;rotatable=0;whiteSpace=wrap;html=1;" parent="wx99u-is4_1wThuH9Zfa-37" vertex="1">
          <mxGeometry y="90" width="140" height="30" as="geometry" />
        </mxCell>
        <mxCell id="wx99u-is4_1wThuH9Zfa-41" value="&lt;b&gt;ImageDecoder&lt;/b&gt;" style="swimlane;fontStyle=0;childLayout=stackLayout;horizontal=1;startSize=30;horizontalStack=0;resizeParent=1;resizeParentMax=0;resizeLast=0;collapsible=1;marginBottom=0;whiteSpace=wrap;html=1;" parent="1" vertex="1" collapsed="1">
          <mxGeometry x="420" y="780" width="120" height="30" as="geometry">
            <mxRectangle x="420" y="780" width="140" height="120" as="alternateBounds" />
          </mxGeometry>
        </mxCell>
        <mxCell id="wx99u-is4_1wThuH9Zfa-42" value="Item 1" style="text;strokeColor=none;fillColor=none;align=left;verticalAlign=middle;spacingLeft=4;spacingRight=4;overflow=hidden;points=[[0,0.5],[1,0.5]];portConstraint=eastwest;rotatable=0;whiteSpace=wrap;html=1;" parent="wx99u-is4_1wThuH9Zfa-41" vertex="1">
          <mxGeometry y="30" width="140" height="30" as="geometry" />
        </mxCell>
        <mxCell id="wx99u-is4_1wThuH9Zfa-43" value="Item 2" style="text;strokeColor=none;fillColor=none;align=left;verticalAlign=middle;spacingLeft=4;spacingRight=4;overflow=hidden;points=[[0,0.5],[1,0.5]];portConstraint=eastwest;rotatable=0;whiteSpace=wrap;html=1;" parent="wx99u-is4_1wThuH9Zfa-41" vertex="1">
          <mxGeometry y="60" width="140" height="30" as="geometry" />
        </mxCell>
        <mxCell id="wx99u-is4_1wThuH9Zfa-44" value="Item 3" style="text;strokeColor=none;fillColor=none;align=left;verticalAlign=middle;spacingLeft=4;spacingRight=4;overflow=hidden;points=[[0,0.5],[1,0.5]];portConstraint=eastwest;rotatable=0;whiteSpace=wrap;html=1;" parent="wx99u-is4_1wThuH9Zfa-41" vertex="1">
          <mxGeometry y="90" width="140" height="30" as="geometry" />
        </mxCell>
        <mxCell id="wx99u-is4_1wThuH9Zfa-45" value="&lt;b&gt;CameraService&lt;/b&gt;" style="swimlane;fontStyle=0;childLayout=stackLayout;horizontal=1;startSize=30;horizontalStack=0;resizeParent=1;resizeParentMax=0;resizeLast=0;collapsible=1;marginBottom=0;whiteSpace=wrap;html=1;" parent="1" vertex="1" collapsed="1">
          <mxGeometry x="570" y="780" width="130" height="30" as="geometry">
            <mxRectangle x="570" y="780" width="140" height="120" as="alternateBounds" />
          </mxGeometry>
        </mxCell>
        <mxCell id="wx99u-is4_1wThuH9Zfa-46" value="Item 1" style="text;strokeColor=none;fillColor=none;align=left;verticalAlign=middle;spacingLeft=4;spacingRight=4;overflow=hidden;points=[[0,0.5],[1,0.5]];portConstraint=eastwest;rotatable=0;whiteSpace=wrap;html=1;" parent="wx99u-is4_1wThuH9Zfa-45" vertex="1">
          <mxGeometry y="30" width="140" height="30" as="geometry" />
        </mxCell>
        <mxCell id="wx99u-is4_1wThuH9Zfa-47" value="Item 2" style="text;strokeColor=none;fillColor=none;align=left;verticalAlign=middle;spacingLeft=4;spacingRight=4;overflow=hidden;points=[[0,0.5],[1,0.5]];portConstraint=eastwest;rotatable=0;whiteSpace=wrap;html=1;" parent="wx99u-is4_1wThuH9Zfa-45" vertex="1">
          <mxGeometry y="60" width="140" height="30" as="geometry" />
        </mxCell>
        <mxCell id="wx99u-is4_1wThuH9Zfa-48" value="Item 3" style="text;strokeColor=none;fillColor=none;align=left;verticalAlign=middle;spacingLeft=4;spacingRight=4;overflow=hidden;points=[[0,0.5],[1,0.5]];portConstraint=eastwest;rotatable=0;whiteSpace=wrap;html=1;" parent="wx99u-is4_1wThuH9Zfa-45" vertex="1">
          <mxGeometry y="90" width="140" height="30" as="geometry" />
        </mxCell>
        <mxCell id="wx99u-is4_1wThuH9Zfa-49" value="" style="endArrow=block;html=1;rounded=0;exitX=0.5;exitY=0;exitDx=0;exitDy=0;dashed=1;dashPattern=8 8;endFill=0;entryX=0.529;entryY=1.167;entryDx=0;entryDy=0;entryPerimeter=0;" parent="1" source="wx99u-is4_1wThuH9Zfa-33" target="wx99u-is4_1wThuH9Zfa-40" edge="1">
          <mxGeometry width="50" height="50" relative="1" as="geometry">
            <mxPoint x="500" y="760" as="sourcePoint" />
            <mxPoint x="190" y="670" as="targetPoint" />
          </mxGeometry>
        </mxCell>
        <mxCell id="wx99u-is4_1wThuH9Zfa-50" value="&lt;b&gt;ImageBuffer&lt;/b&gt;" style="swimlane;fontStyle=0;childLayout=stackLayout;horizontal=1;startSize=30;horizontalStack=0;resizeParent=1;resizeParentMax=0;resizeLast=0;collapsible=1;marginBottom=0;whiteSpace=wrap;html=1;" parent="1" vertex="1">
          <mxGeometry x="-130" y="780" width="210" height="120" as="geometry" />
        </mxCell>
        <mxCell id="wx99u-is4_1wThuH9Zfa-51" value="image_provider: ImageProvider" style="text;strokeColor=none;fillColor=none;align=left;verticalAlign=middle;spacingLeft=4;spacingRight=4;overflow=hidden;points=[[0,0.5],[1,0.5]];portConstraint=eastwest;rotatable=0;whiteSpace=wrap;html=1;" parent="wx99u-is4_1wThuH9Zfa-50" vertex="1">
          <mxGeometry y="30" width="210" height="30" as="geometry" />
        </mxCell>
        <mxCell id="wx99u-is4_1wThuH9Zfa-52" value="Item 2" style="text;strokeColor=none;fillColor=none;align=left;verticalAlign=middle;spacingLeft=4;spacingRight=4;overflow=hidden;points=[[0,0.5],[1,0.5]];portConstraint=eastwest;rotatable=0;whiteSpace=wrap;html=1;" parent="wx99u-is4_1wThuH9Zfa-50" vertex="1">
          <mxGeometry y="60" width="210" height="30" as="geometry" />
        </mxCell>
        <mxCell id="wx99u-is4_1wThuH9Zfa-53" value="Item 3" style="text;strokeColor=none;fillColor=none;align=left;verticalAlign=middle;spacingLeft=4;spacingRight=4;overflow=hidden;points=[[0,0.5],[1,0.5]];portConstraint=eastwest;rotatable=0;whiteSpace=wrap;html=1;" parent="wx99u-is4_1wThuH9Zfa-50" vertex="1">
          <mxGeometry y="90" width="210" height="30" as="geometry" />
        </mxCell>
        <mxCell id="ZjCnevx82HWG5ks_SKBf-7" value="" style="group" parent="1" vertex="1" connectable="0">
          <mxGeometry x="1504" y="670" width="150" height="80" as="geometry" />
        </mxCell>
        <mxCell id="ZjCnevx82HWG5ks_SKBf-3" value="Camera" style="rounded=0;whiteSpace=wrap;html=1;" parent="ZjCnevx82HWG5ks_SKBf-7" vertex="1">
          <mxGeometry width="150" height="40" as="geometry" />
        </mxCell>
        <mxCell id="ZjCnevx82HWG5ks_SKBf-4" value="Client" style="rounded=0;whiteSpace=wrap;html=1;fillColor=#fff2cc;strokeColor=#d6b656;" parent="ZjCnevx82HWG5ks_SKBf-7" vertex="1">
          <mxGeometry y="40" width="150" height="40" as="geometry" />
        </mxCell>
        <mxCell id="ZjCnevx82HWG5ks_SKBf-8" value="" style="group" parent="1" vertex="1" connectable="0">
          <mxGeometry x="1670" y="670" width="150" height="80" as="geometry" />
        </mxCell>
        <mxCell id="ZjCnevx82HWG5ks_SKBf-1" value="Camera" style="rounded=0;whiteSpace=wrap;html=1;" parent="ZjCnevx82HWG5ks_SKBf-8" vertex="1">
          <mxGeometry width="150" height="40" as="geometry" />
        </mxCell>
        <mxCell id="ZjCnevx82HWG5ks_SKBf-2" value="Client" style="rounded=0;whiteSpace=wrap;html=1;fillColor=#fff2cc;strokeColor=#d6b656;" parent="ZjCnevx82HWG5ks_SKBf-8" vertex="1">
          <mxGeometry y="40" width="150" height="40" as="geometry" />
        </mxCell>
        <mxCell id="ZjCnevx82HWG5ks_SKBf-9" value="" style="group" parent="1" vertex="1" connectable="0">
          <mxGeometry x="1840" y="670" width="150" height="80" as="geometry" />
        </mxCell>
        <mxCell id="ZjCnevx82HWG5ks_SKBf-5" value="Camera" style="rounded=0;whiteSpace=wrap;html=1;" parent="ZjCnevx82HWG5ks_SKBf-9" vertex="1">
          <mxGeometry width="150" height="40" as="geometry" />
        </mxCell>
        <mxCell id="ZjCnevx82HWG5ks_SKBf-6" value="Client" style="rounded=0;whiteSpace=wrap;html=1;fillColor=#fff2cc;strokeColor=#d6b656;" parent="ZjCnevx82HWG5ks_SKBf-9" vertex="1">
          <mxGeometry y="40" width="150" height="40" as="geometry" />
        </mxCell>
        <mxCell id="ZjCnevx82HWG5ks_SKBf-10" value="Wireless/LAN network" style="rounded=0;whiteSpace=wrap;html=1;" parent="1" vertex="1">
          <mxGeometry x="1504" y="600" width="486" height="40" as="geometry" />
        </mxCell>
        <mxCell id="ZjCnevx82HWG5ks_SKBf-11" value="" style="rounded=1;whiteSpace=wrap;html=1;fillColor=none;" parent="1" vertex="1">
          <mxGeometry x="1485" y="-20" width="520" height="540" as="geometry" />
        </mxCell>
        <mxCell id="ZjCnevx82HWG5ks_SKBf-14" value="" style="endArrow=classic;html=1;rounded=0;exitX=0.5;exitY=0;exitDx=0;exitDy=0;" parent="1" source="ZjCnevx82HWG5ks_SKBf-3" edge="1">
          <mxGeometry width="50" height="50" relative="1" as="geometry">
            <mxPoint x="1660" y="630" as="sourcePoint" />
            <mxPoint x="1580" y="640" as="targetPoint" />
          </mxGeometry>
        </mxCell>
        <mxCell id="ZjCnevx82HWG5ks_SKBf-15" value="" style="endArrow=classic;html=1;rounded=0;exitX=0.5;exitY=0;exitDx=0;exitDy=0;" parent="1" edge="1">
          <mxGeometry width="50" height="50" relative="1" as="geometry">
            <mxPoint x="1914.5" y="670" as="sourcePoint" />
            <mxPoint x="1915.5" y="640" as="targetPoint" />
          </mxGeometry>
        </mxCell>
        <mxCell id="ZjCnevx82HWG5ks_SKBf-16" value="" style="endArrow=classic;html=1;rounded=0;exitX=0.5;exitY=0;exitDx=0;exitDy=0;" parent="1" edge="1">
          <mxGeometry width="50" height="50" relative="1" as="geometry">
            <mxPoint x="1744.5" y="670" as="sourcePoint" />
            <mxPoint x="1745.5" y="640" as="targetPoint" />
          </mxGeometry>
        </mxCell>
        <mxCell id="ZjCnevx82HWG5ks_SKBf-17" value="package" style="swimlane;fontStyle=0;childLayout=stackLayout;horizontal=1;startSize=30;horizontalStack=0;resizeParent=1;resizeParentMax=0;resizeLast=0;collapsible=1;marginBottom=0;whiteSpace=wrap;html=1;" parent="1" vertex="1">
          <mxGeometry x="1385" y="520" width="100" height="120" as="geometry" />
        </mxCell>
        <mxCell id="ZjCnevx82HWG5ks_SKBf-18" value="image" style="text;strokeColor=none;fillColor=none;align=left;verticalAlign=middle;spacingLeft=4;spacingRight=4;overflow=hidden;points=[[0,0.5],[1,0.5]];portConstraint=eastwest;rotatable=0;whiteSpace=wrap;html=1;" parent="ZjCnevx82HWG5ks_SKBf-17" vertex="1">
          <mxGeometry y="30" width="100" height="30" as="geometry" />
        </mxCell>
        <mxCell id="ZjCnevx82HWG5ks_SKBf-19" value="timestamp" style="text;strokeColor=none;fillColor=none;align=left;verticalAlign=middle;spacingLeft=4;spacingRight=4;overflow=hidden;points=[[0,0.5],[1,0.5]];portConstraint=eastwest;rotatable=0;whiteSpace=wrap;html=1;" parent="ZjCnevx82HWG5ks_SKBf-17" vertex="1">
          <mxGeometry y="60" width="100" height="30" as="geometry" />
        </mxCell>
        <mxCell id="ZjCnevx82HWG5ks_SKBf-20" value="robot_id" style="text;strokeColor=none;fillColor=none;align=left;verticalAlign=middle;spacingLeft=4;spacingRight=4;overflow=hidden;points=[[0,0.5],[1,0.5]];portConstraint=eastwest;rotatable=0;whiteSpace=wrap;html=1;" parent="ZjCnevx82HWG5ks_SKBf-17" vertex="1">
          <mxGeometry y="90" width="100" height="30" as="geometry" />
        </mxCell>
        <mxCell id="ZjCnevx82HWG5ks_SKBf-21" value="" style="endArrow=classic;html=1;rounded=0;exitX=0.159;exitY=0;exitDx=0;exitDy=0;exitPerimeter=0;entryX=0.184;entryY=1.002;entryDx=0;entryDy=0;entryPerimeter=0;" parent="1" source="ZjCnevx82HWG5ks_SKBf-10" target="ZjCnevx82HWG5ks_SKBf-11" edge="1">
          <mxGeometry width="50" height="50" relative="1" as="geometry">
            <mxPoint x="1770" y="550" as="sourcePoint" />
            <mxPoint x="1820" y="500" as="targetPoint" />
          </mxGeometry>
        </mxCell>
        <mxCell id="ZjCnevx82HWG5ks_SKBf-22" value="" style="endArrow=classic;html=1;rounded=0;exitX=0.493;exitY=-0.058;exitDx=0;exitDy=0;exitPerimeter=0;entryX=0.498;entryY=1.007;entryDx=0;entryDy=0;entryPerimeter=0;" parent="1" source="ZjCnevx82HWG5ks_SKBf-10" target="ZjCnevx82HWG5ks_SKBf-11" edge="1">
          <mxGeometry width="50" height="50" relative="1" as="geometry">
            <mxPoint x="1740" y="590" as="sourcePoint" />
            <mxPoint x="1790" y="540" as="targetPoint" />
          </mxGeometry>
        </mxCell>
        <mxCell id="ZjCnevx82HWG5ks_SKBf-23" value="" style="endArrow=classic;html=1;rounded=0;exitX=0.848;exitY=-0.033;exitDx=0;exitDy=0;exitPerimeter=0;entryX=0.826;entryY=1.008;entryDx=0;entryDy=0;entryPerimeter=0;" parent="1" source="ZjCnevx82HWG5ks_SKBf-10" target="ZjCnevx82HWG5ks_SKBf-11" edge="1">
          <mxGeometry width="50" height="50" relative="1" as="geometry">
            <mxPoint x="1840" y="590" as="sourcePoint" />
            <mxPoint x="1890" y="540" as="targetPoint" />
          </mxGeometry>
        </mxCell>
        <mxCell id="ZjCnevx82HWG5ks_SKBf-26" value="" style="group" parent="1" vertex="1" connectable="0">
          <mxGeometry x="1540" y="460" width="420" height="40" as="geometry" />
        </mxCell>
        <mxCell id="ZjCnevx82HWG5ks_SKBf-24" value="" style="rounded=0;whiteSpace=wrap;html=1;" parent="ZjCnevx82HWG5ks_SKBf-26" vertex="1">
          <mxGeometry width="420" height="40" as="geometry" />
        </mxCell>
        <mxCell id="ZjCnevx82HWG5ks_SKBf-25" value="Connections &lt;br&gt;Registrator" style="text;html=1;strokeColor=none;fillColor=none;align=center;verticalAlign=middle;whiteSpace=wrap;rounded=0;" parent="ZjCnevx82HWG5ks_SKBf-26" vertex="1">
          <mxGeometry x="130" y="5" width="150" height="30" as="geometry" />
        </mxCell>
        <mxCell id="ZjCnevx82HWG5ks_SKBf-31" style="edgeStyle=orthogonalEdgeStyle;rounded=0;orthogonalLoop=1;jettySize=auto;html=1;exitX=0.5;exitY=0;exitDx=0;exitDy=0;entryX=0.314;entryY=1.009;entryDx=0;entryDy=0;entryPerimeter=0;" parent="1" source="ZjCnevx82HWG5ks_SKBf-24" target="ZjCnevx82HWG5ks_SKBf-27" edge="1">
          <mxGeometry relative="1" as="geometry" />
        </mxCell>
        <mxCell id="ZjCnevx82HWG5ks_SKBf-35" value="" style="group" parent="1" vertex="1" connectable="0">
          <mxGeometry x="1530" y="150" width="700" height="253.75" as="geometry" />
        </mxCell>
        <mxCell id="ZjCnevx82HWG5ks_SKBf-27" value="" style="rounded=0;whiteSpace=wrap;html=1;fillColor=none;" parent="ZjCnevx82HWG5ks_SKBf-35" vertex="1">
          <mxGeometry width="700" height="253.75" as="geometry" />
        </mxCell>
        <mxCell id="ZjCnevx82HWG5ks_SKBf-28" value="Image Storage Interface" style="text;html=1;strokeColor=none;fillColor=none;align=center;verticalAlign=middle;whiteSpace=wrap;rounded=0;container=1;" parent="ZjCnevx82HWG5ks_SKBf-35" vertex="1">
          <mxGeometry x="20" y="210" width="569.77" height="30" as="geometry" />
        </mxCell>
        <mxCell id="ZjCnevx82HWG5ks_SKBf-36" style="edgeStyle=orthogonalEdgeStyle;rounded=0;orthogonalLoop=1;jettySize=auto;html=1;exitX=0.258;exitY=0;exitDx=0;exitDy=0;exitPerimeter=0;entryX=0.534;entryY=1.007;entryDx=0;entryDy=0;entryPerimeter=0;" parent="1" source="ZjCnevx82HWG5ks_SKBf-27" target="ZjCnevx82HWG5ks_SKBf-42" edge="1">
          <mxGeometry relative="1" as="geometry">
            <Array as="points">
              <mxPoint x="1760" y="150" />
            </Array>
          </mxGeometry>
        </mxCell>
        <mxCell id="ZjCnevx82HWG5ks_SKBf-39" value="" style="group" parent="1" vertex="1" connectable="0">
          <mxGeometry x="1530" y="206.25" width="220" height="110" as="geometry" />
        </mxCell>
        <mxCell id="ZjCnevx82HWG5ks_SKBf-33" value="" style="rounded=0;whiteSpace=wrap;html=1;" parent="ZjCnevx82HWG5ks_SKBf-39" vertex="1">
          <mxGeometry width="220" height="110" as="geometry" />
        </mxCell>
        <mxCell id="ZjCnevx82HWG5ks_SKBf-38" value="Local Storage" style="text;html=1;strokeColor=none;fillColor=none;align=center;verticalAlign=middle;whiteSpace=wrap;rounded=0;" parent="ZjCnevx82HWG5ks_SKBf-39" vertex="1">
          <mxGeometry x="40" y="18.75" width="140" height="70" as="geometry" />
        </mxCell>
        <mxCell id="ZjCnevx82HWG5ks_SKBf-41" value="" style="group" parent="1" vertex="1" connectable="0">
          <mxGeometry x="2020" y="220" width="190" height="120" as="geometry" />
        </mxCell>
        <mxCell id="ZjCnevx82HWG5ks_SKBf-34" value="" style="ellipse;shape=cloud;whiteSpace=wrap;html=1;" parent="ZjCnevx82HWG5ks_SKBf-41" vertex="1">
          <mxGeometry width="190" height="120" as="geometry" />
        </mxCell>
        <mxCell id="ZjCnevx82HWG5ks_SKBf-40" value="Cloud Storage" style="text;html=1;strokeColor=none;fillColor=none;align=center;verticalAlign=middle;whiteSpace=wrap;rounded=0;" parent="ZjCnevx82HWG5ks_SKBf-41" vertex="1">
          <mxGeometry x="65" y="45" width="60" height="30" as="geometry" />
        </mxCell>
        <mxCell id="ZjCnevx82HWG5ks_SKBf-42" value="" style="rounded=0;whiteSpace=wrap;html=1;" parent="1" vertex="1">
          <mxGeometry x="1525" y="50" width="440" height="60" as="geometry" />
        </mxCell>
      </root>
    </mxGraphModel>
  </diagram>
</mxfile>
